<svg 
 xmlns="http://www.w3.org/2000/svg"
 xmlns:xlink="http://www.w3.org/1999/xlink"
 width="100px" height="90px">
<path fill-rule="evenodd"  fill="rgb(255, 255, 255)"
 d="M48.557,0.023 C45.053,0.023 42.180,2.455 41.531,5.780 L41.348,5.780 L18.284,31.743 L29.816,31.743 L45.769,13.806 C46.628,14.170 47.571,14.441 48.557,14.441 C49.558,14.441 50.484,14.170 51.361,13.806 L67.296,31.743 L78.846,31.743 L55.766,5.780 L55.581,5.780 C54.951,2.455 52.077,0.023 48.557,0.023 L48.557,0.023 ZM6.754,37.503 C3.555,37.503 0.979,40.080 0.979,43.278 L0.979,46.161 C0.979,49.204 3.314,51.598 6.303,51.839 L15.397,83.645 C18.284,89.416 21.172,89.416 24.041,89.416 L75.957,89.416 C78.846,89.416 81.714,89.416 84.603,83.645 L93.715,51.839 C96.684,51.598 99.021,49.204 99.021,46.161 L99.021,43.278 C99.021,40.080 96.459,37.503 93.264,37.503 L6.754,37.503 L6.754,37.503 ZM22.975,51.922 L24.409,51.922 C27.607,51.922 30.761,54.329 31.435,57.328 L35.490,75.269 C36.168,78.282 34.098,80.758 30.900,80.758 L29.448,80.758 C26.255,80.758 23.101,78.282 22.423,75.269 L18.368,57.328 C17.694,54.329 19.776,51.922 22.975,51.922 L22.975,51.922 ZM50.009,51.922 C53.203,51.922 55.766,54.498 55.766,57.696 L55.766,74.998 C55.766,78.196 53.203,80.758 50.009,80.758 C46.811,80.758 44.234,78.196 44.234,74.998 L44.234,57.696 C44.234,54.498 46.811,51.922 50.009,51.922 L50.009,51.922 ZM75.591,51.922 L77.043,51.922 C80.238,51.922 82.306,54.329 81.632,57.328 L77.577,75.269 C76.899,78.282 73.749,80.758 70.551,80.758 L69.098,80.758 C65.906,80.758 63.836,78.282 64.510,75.269 L68.565,57.328 C69.243,54.329 72.393,51.922 75.591,51.922 L75.591,51.922 Z"/>
</svg>