<svg 
 xmlns="http://www.w3.org/2000/svg"
 xmlns:xlink="http://www.w3.org/1999/xlink"
 width="33px" height="33px">
<path fill-rule="evenodd"  fill="rgb(255, 255, 255)"
 d="M16.612,0.184 C7.779,0.184 0.618,7.345 0.618,16.178 C0.618,25.011 7.779,32.171 16.612,32.171 C25.445,32.171 32.605,25.011 32.605,16.178 C32.605,7.345 25.445,0.184 16.612,0.184 ZM24.892,14.967 L17.642,22.217 C16.250,23.612 14.346,23.964 13.388,23.006 C13.376,22.994 13.368,22.976 13.356,22.963 C13.136,22.859 12.922,22.736 12.741,22.554 L8.357,18.170 C7.514,17.327 7.514,15.963 8.357,15.120 C9.199,14.278 10.564,14.278 11.407,15.120 L14.606,18.320 L21.426,11.501 C22.818,10.108 24.721,9.757 25.680,10.713 C26.637,11.671 26.283,13.577 24.892,14.967 Z"/>
</svg>