<svg 
 xmlns="http://www.w3.org/2000/svg"
 xmlns:xlink="http://www.w3.org/1999/xlink"
 width="78px" height="108px">
<path fill-rule="evenodd"  fill="rgb(255, 255, 255)"
 d="M75.690,25.116 L69.121,35.660 L36.332,15.246 L42.895,4.702 C45.792,0.045 51.919,-1.382 56.581,1.517 L72.508,11.433 C77.165,14.332 78.586,20.459 75.690,25.116 ZM36.269,88.308 L3.552,67.899 L33.836,19.357 L66.555,39.783 L36.269,88.308 ZM40.686,31.648 C39.146,30.690 37.164,31.085 36.286,32.519 L14.756,67.006 C13.851,68.418 14.368,70.373 15.918,71.334 C17.444,72.299 19.425,71.901 20.323,70.494 L41.848,35.995 C42.745,34.563 42.216,32.604 40.686,31.648 ZM52.540,39.044 C51.007,38.098 49.013,38.478 48.135,39.912 L26.601,74.409 C25.713,75.816 26.236,77.786 27.767,78.727 C29.307,79.702 31.287,79.299 32.179,77.887 L53.714,43.405 C54.602,41.957 54.078,40.014 52.540,39.044 ZM18.809,100.242 C17.223,96.914 14.737,93.964 11.377,91.874 C8.020,89.783 4.280,88.856 0.598,88.900 L0.003,73.686 L32.693,94.086 L18.809,100.242 ZM9.590,94.736 C12.350,96.453 14.383,98.893 15.605,101.659 L1.338,107.985 L0.729,92.393 C3.749,92.271 6.832,93.023 9.590,94.736 Z"/>
</svg>