<svg 
 xmlns="http://www.w3.org/2000/svg"
 xmlns:xlink="http://www.w3.org/1999/xlink"
 width="96px" height="83px">
<path fill-rule="evenodd"  fill="rgb(255, 255, 255)"
 d="M12.154,0.973 C5.960,0.973 0.980,5.967 0.980,12.160 L0.980,54.075 C0.980,60.271 5.960,65.252 12.154,65.252 L37.300,65.252 L37.300,73.628 L26.125,73.628 C24.584,73.628 23.328,74.882 23.328,76.425 L23.328,82.018 L73.634,82.018 L73.634,76.425 C73.634,74.882 72.379,73.628 70.837,73.628 L59.663,73.628 L59.663,65.252 L84.809,65.252 C91.003,65.252 95.983,60.271 95.983,54.075 L95.983,12.160 C95.983,5.967 91.003,0.973 84.809,0.973 L12.154,0.973 L12.154,0.973 ZM14.951,12.160 L82.011,12.160 C83.567,12.160 84.809,13.403 84.809,14.945 L84.809,51.281 C84.809,52.821 83.567,54.075 82.011,54.075 L14.951,54.075 C13.409,54.075 12.154,52.821 12.154,51.281 L12.154,14.945 C12.154,13.403 13.409,12.160 14.951,12.160 L14.951,12.160 Z"/>
</svg>